<?xml version="1.0" encoding="utf-8"?>
<!-- Generator: Adobe Illustrator 27.9.0, SVG Export Plug-In . SVG Version: 6.00 Build 0)  -->
<svg version="1.1" id="Layer_1" xmlns="http://www.w3.org/2000/svg" xmlns:xlink="http://www.w3.org/1999/xlink" x="0px" y="0px"
	 viewBox="0 0 57.6 65.9" style="enable-background:new 0 0 57.6 65.9;" xml:space="preserve">
<style type="text/css">
	.st0{fill:#502C1E;}
	.st1{fill:#FFFFFF;}
</style>
<g>
	<g>
		<path class="st0" d="M0,0.1v66.3h42.2c8.5,0,15.4-6.9,15.4-15.4v-51H0z"/>
	</g>
	<g>
		<g>
			<path class="st1" d="M27.8,20.5c-4,0.2-7.2,2.7-7.2,5.7c0,3.1,3.4,5.4,7.5,5.7c1.2,0.1,2.7-0.1,2.7-0.1v-3.2h-2.1l0,1h-0.5
				c-2.5-0.2-4.4-1.5-4.4-3.3c0-1.8,1.8-3.1,4.1-3.3V20.5z"/>
			<path class="st1" d="M31.2,27.4h-4.8l0-2h4.3c1.9,0,1.8-0.6,1.8-0.6c0-1.7-3.7-1.8-3.7-1.8v-2.4c5.2,0,7.3,3.2,7.3,3.2
				c1.3,1.9-0.1,2.4-0.1,2.4c1.9,3.3-3.9,5.2-3.9,5.2V28C32,28,32.1,27.4,31.2,27.4"/>
			<path class="st1" d="M23.1,40c0,0.3-0.3,0.5-0.5,0.5c-0.4,0.1-0.6-0.1-0.6-0.1c-0.3-0.4-0.1-0.8-0.5-0.8c-0.8,0-1,0.6-1.1,1.2
				c-0.1,0.7,0.2,1.5,1.3,1.5c0.4,0,0.8-0.1,1-0.4c0,0,0,0,0.1,0c0.1,0,0.2,0.1,0.3,0.2c0,0,0,0,0,0.1c-0.3,0.5-1.3,1.1-2.3,1.1
				c-1.5,0-2.1-0.9-2.1-1.6c0.1-1.3,1.3-2.3,2.8-2.3C21.9,39.1,23.1,39.2,23.1,40"/>
			<path class="st1" d="M27.7,41.5C27.7,41.5,27.7,41.5,27.7,41.5c0,0.6,0.1,0.7,0.4,0.7c0.1,0,0.2,0,0.3-0.1c0,0,0.1,0,0.1,0
				c0.1,0,0.1,0.1,0.1,0.2c0,0,0,0,0,0c-0.2,0.2-0.8,0.5-1.4,0.5c-0.4,0-0.7-0.1-1-0.3c-0.1-0.1-0.1-0.1-0.2-0.1
				c-0.1,0-0.1,0-0.2,0.1C25.5,42.7,25,43,24.6,43c-0.7,0-1.1-0.3-1-0.9c0.1-0.4,0.5-0.7,0.9-0.8c0.4-0.1,1-0.3,1.3-0.3
				c0.2,0,0.2-0.4,0.2-0.7c0-0.3,0.1-0.8-0.4-0.8c-0.3,0-0.4,0.4-0.5,0.7c-0.1,0.2-0.3,0.3-0.4,0.3c-0.2,0.1-0.4,0.1-0.6,0.1
				c-0.4-0.1-0.4-0.4-0.4-0.5c0-0.2,0.2-0.4,0.5-0.6c0.4-0.3,1.4-0.4,2.2-0.5c1.3,0,1.6,0.4,1.5,1.3L27.7,41.5z M26,41.4
				c0-0.2-0.1-0.2-0.2-0.2c-0.5,0.1-0.8,0.4-0.8,0.7c0,0.3,0.1,0.5,0.4,0.5C25.8,42.4,26.1,42.1,26,41.4z"/>
			<path class="st1" d="M31.2,39.5C31,39.5,31,40,31,40.3l0,1.6c0,0.6,0.3,0.6,0.7,0.7l0.3,0c0,0,0.1,0,0.1,0.1c0,0.1,0,0.1,0,0.2
				c0,0,0,0-0.1,0c-0.5,0-1.6,0-2.1,0c-0.5,0-0.9,0-1.2,0c0,0-0.1,0-0.1,0c0,0,0-0.1,0-0.2c0,0,0-0.1,0.1-0.1l0.1,0
				c0.4,0,0.5-0.1,0.5-0.7v-1.6c0-0.2,0-0.8-0.2-0.8l-0.4,0c-0.1,0-0.1-0.1-0.2-0.1c0-0.1,0-0.3,0.1-0.3c0,0,0.7,0,0.8,0
				c0.1,0,0.2-0.3,0.4-0.7c0.3-0.5,0.8-1.1,2-1.2c0.6,0,1,0.2,1,0.6c0,0.3-0.2,0.6-0.6,0.6c-0.2,0-0.4-0.1-0.5-0.2
				c-0.2-0.2-0.2-0.5-0.5-0.3c-0.2,0.1-0.2,0.5-0.2,0.7v0.3c0,0.2,0,0.2,0.3,0.2l1,0c0,0,0.1,0,0.1,0c0,0,0,0.1,0,0.1
				c0,0.1,0,0.2-0.1,0.3c0,0,0,0-0.1,0L31.2,39.5z"/>
			<path class="st1" d="M34.4,40.6c-0.3,0-0.5,0.1-0.5,0.2c0,0.7,0.7,1.2,1.3,1.3c0.3,0,0.7,0,1.2-0.4c0.1-0.1,0.4,0.1,0.3,0.2
				c-0.5,0.8-1.5,1.1-2.2,1.1c-1.6,0-2.2-0.7-2.2-1.7c0-1.2,1.1-2.3,2.6-2.3c1.2,0,1.6,0.6,1.8,1c0.1,0.2,0.1,0.3-0.1,0.4L34.4,40.6
				z M35.1,40c0.1,0,0.1-0.1,0.1-0.2c0-0.2-0.1-0.5-0.5-0.5c-0.5,0-0.8,0.4-0.8,0.7C33.9,40.4,35,40.1,35.1,40"/>
			<path class="st1" d="M34.6,38.2c0.2-0.4,0.5-0.8,1-0.7c0.4,0.1,0.4,0.6,0.1,0.8c-0.4,0.2-0.8,0.3-1.2,0.5c-0.1,0-0.1,0-0.1-0.1
				C34.4,38.5,34.5,38.5,34.6,38.2"/>
			<path class="st1" d="M8.1,48.4c0-1.6,0.2-1.8-0.7-1.9l-0.5-0.1c-0.1,0-0.2-0.1-0.2-0.1c-0.1-0.2,0-0.5,0.2-0.5
				c1.7-0.1,3.3,0,5.5,0c2.1,0,3.5,0,4.5,0.4c1.1,0.4,1.5,1.2,1.4,2.1c-0.2,1.6-2.8,2-2.8,2.1c0,0.1,0.3,0.1,0.5,0.1
				c1.7,0.2,2.9,1.3,3,2.9c0,1.5-1,2.4-2.4,2.8c-1.4,0.4-2.9,0.4-4.3,0.4c-0.8,0-1.6,0-2.2,0c-1,0-2.1,0-3.3,0
				c-0.1,0-0.2-0.1-0.3-0.2c0-0.2,0-0.3,0.1-0.4L7,56c1-0.1,1.1-0.3,1.1-1.7V48.4z M12.1,50.5c0,0.4,0.2,0.4,0.6,0.3
				c1.3-0.3,1.8-1.4,1.8-2.4c0-1.4-0.9-1.7-1.4-1.7c-1,0-1,0.4-1,1.1V50.5z M12,53.8c0,1.3,0.1,2.3,1.4,2.1c0.7-0.1,1.2-0.9,1.2-2.3
				c0-1.4-1.1-2.1-1.4-2.2c-1-0.4-1.2,0-1.2,0.7V53.8z"/>
			<path class="st1" d="M20.4,51.7c0-0.7,0.1-1.5-0.4-1.7c-0.2-0.1-0.8-0.3-0.8-0.3c-0.3-0.1-0.3-0.3-0.1-0.4
				c1.2-0.2,3.3-0.1,4.2-0.5c0,0,0.1,0,0.1,0c0.1,0,0.1,0,0.2,0c0.1,0,0.2,0.1,0.2,0.3c0,0.3-0.1,0.7-0.1,0.9c0,0.1,0,0.4,0.3,0.2
				c0.6-0.4,1.4-1.2,2.5-1.2c0.7,0,1.3,0.6,1.3,1.3c0,0.8-0.6,1.4-1.5,1.4c-0.4,0-0.6-0.1-0.8-0.4c-0.5-0.5-0.7-0.6-0.9-0.6
				c-0.6,0-1,0.4-1,1.1v2.6c0,1.3,0.2,1.4,1.1,1.5l0.7,0c0.1,0,0.2,0.1,0.2,0.2c0,0.1,0,0.2,0,0.4c0,0.1-0.1,0.1-0.2,0.1
				c-1.2,0-2.2-0.1-3.4-0.1c-1,0-2.1,0-3,0.1c-0.1,0-0.2,0-0.2-0.1c-0.1-0.1-0.1-0.2,0-0.4c0-0.1,0.1-0.1,0.2-0.2l0.4,0
				c0.9-0.1,1-0.2,1-1.5V51.7z"/>
			<path class="st1" d="M32.7,54.4c0,1.3,0,1.5,0.7,1.5l0.3,0c0.1,0,0.2,0.1,0.2,0.2c0,0.1,0,0.2,0,0.3c0,0.1-0.1,0.1-0.2,0.1
				c-0.8,0-1.9,0-2.9,0c-0.9,0-1.8,0-2.5,0c-0.1,0-0.2,0-0.2-0.1c0-0.1,0-0.2,0-0.3c0-0.1,0.1-0.1,0.2-0.2l0.3,0c0,0,0,0,0,0
				c0.7,0,0.8-0.5,0.8-0.6c0.1-0.6,0.1-3.9,0.1-4c0-0.6,0-1.2-0.5-1.4c0,0-0.7-0.3-0.7-0.3c-0.2-0.1-0.3-0.3-0.1-0.3
				c1.1-0.3,3.4-0.3,4.2-0.6c0,0,0.1,0,0.1,0c0.1,0,0.1,0,0.2,0c0.1,0,0.1,0.1,0.1,0.2c0,0.5-0.1,1.3-0.1,2.1L32.7,54.4z M33.1,46
				c0,1.1-0.8,1.7-1.9,1.9c-1.3,0.2-2.1-0.5-2.1-1.5c0-1,1-1.9,2.2-1.9C32.6,44.5,33.1,45.1,33.1,46"/>
			<path class="st1" d="M39.1,50.1c-0.3,0-1.1,0-1.1,0.4L38,53.3c0,1-0.3,2.2,1.3,2.2c0.3,0,0.6-0.2,0.8-0.3c0.1,0,0.1,0,0.2,0
				c0.1,0.1,0.2,0.2,0.2,0.3c0,0.1,0,0.1-0.1,0.2c-0.7,0.5-2,0.9-3.3,0.9c-1.8,0-2.5-0.7-2.5-1.9v-4.1c0-0.6-0.4-0.4-0.8-0.5
				c-0.1,0-0.2,0-0.2-0.1c-0.1-0.1-0.2-0.2-0.2-0.3c0-0.1,0.1-0.2,0.2-0.2c0.6-0.2,1.1-0.4,1.6-0.7c0.4-0.2,0.6-0.4,1-1.4
				c0,0,0.1-0.1,0.1-0.1c0.4-0.1,1.3-0.3,1.7-0.3c0.1,0,0.1,0,0.1,0.1l0,1.2c0,0.4-0.1,0.8,0.3,0.8l2,0c0.1,0,0.1,0,0.2,0.1
				c0.1,0.1,0.1,0.2,0.1,0.4c0,0.2-0.1,0.5-0.2,0.6c0,0-0.1,0-0.1,0L39.1,50.1z"/>
			<path class="st1" d="M47.1,50.1c-0.3,0-1.1,0-1.1,0.4L46,53.3c0,1-0.3,2.2,1.3,2.2c0.3,0,0.6-0.2,0.8-0.3c0.1,0,0.1,0,0.2,0
				c0.1,0.1,0.2,0.2,0.2,0.3c0,0.1,0,0.1-0.1,0.2c-0.7,0.5-2,0.9-3.3,0.9c-1.8,0-2.5-0.7-2.5-1.9v-4.1c0-0.6-0.4-0.4-0.8-0.5
				c-0.1,0-0.2,0-0.2-0.1c-0.1-0.1-0.2-0.2-0.2-0.3c0-0.1,0.1-0.2,0.2-0.2c0.6-0.2,1.1-0.4,1.6-0.7c0.4-0.2,0.6-0.4,1-1.4
				c0,0,0.1-0.1,0.1-0.1c0.4-0.1,1.3-0.3,1.7-0.3c0.1,0,0.1,0,0.1,0.1l0,1.2c0,0.4-0.1,0.8,0.3,0.8l2,0c0.1,0,0.1,0,0.2,0.1
				c0.1,0.1,0.1,0.2,0.1,0.4c0,0.2-0.1,0.5-0.2,0.6c0,0-0.1,0-0.1,0L47.1,50.1z"/>
			<g>
				<path class="st1" d="M16,25.4c0,0,0.8-0.4,1.6,0.2C17.6,25.5,16.8,26,16,25.4"/>
				<path class="st1" d="M16.5,27.2c0,0,1.3,0,1.8-1.3C18.3,25.9,16.9,26.1,16.5,27.2"/>
				<path class="st1" d="M19.6,26.1c0,0-2.4,0.7-2.8,2.8C16.8,29,18.6,28.6,19.6,26.1"/>
				<path class="st1" d="M16.9,23.7c0,0,1.2,0.3,1.4,1.7C18.3,25.4,16.9,24.8,16.9,23.7"/>
				<path class="st1" d="M19.6,25.4c0,0-2.1-1.3-2.1-3.4C17.5,22,19.2,22.8,19.6,25.4"/>
			</g>
			<g>
				<path class="st1" d="M41.3,25.4c0,0-0.8-0.4-1.6,0.2C39.6,25.5,40.4,26,41.3,25.4"/>
				<path class="st1" d="M40.7,27.2c0,0-1.3,0-1.8-1.3C38.9,25.9,40.4,26.1,40.7,27.2"/>
				<path class="st1" d="M37.7,26.1c0,0,2.4,0.7,2.8,2.8C40.5,29,38.7,28.6,37.7,26.1"/>
				<path class="st1" d="M40.4,23.7c0,0-1.2,0.3-1.4,1.7C38.9,25.4,40.3,24.8,40.4,23.7"/>
				<path class="st1" d="M37.7,25.4c0,0,2.1-1.3,2.1-3.4C39.8,22,38.1,22.8,37.7,25.4"/>
			</g>
			<g>
				<path class="st1" d="M18.6,20.6l1-0.8l1.9,2.4l-1,0.8c0,0-0.1,0.1-0.2,0c0,0,0-0.1,0-0.2c0.1-0.1,0.1-0.2,0-0.3l-1.3-1.7
					c-0.1-0.1-0.1-0.1-0.3-0.1c-0.1,0-0.1,0-0.1,0C18.4,20.7,18.5,20.6,18.6,20.6z M19.7,19.6l0.8-0.7l0.5,0.6c0,0,0.1,0.1-0.1,0.2
					c-0.1,0.1-0.1,0-0.2,0c-0.3-0.2-0.6-0.2-1,0.1L19.7,19.6z M20.5,20.6c0.1-0.2,0.1-0.4,0-0.5c0-0.1,0-0.1,0-0.2
					c0.1-0.1,0.2,0,0.2,0.1l0.6,0.7c0,0,0.1,0.1,0,0.2c-0.1,0.1-0.1,0-0.2,0c-0.1-0.1-0.3-0.2-0.5-0.1L20.5,20.6z M21.5,21.8
					c0.3-0.3,0.4-0.7,0.3-1c0-0.1,0-0.1,0-0.2c0.1-0.1,0.2,0,0.2,0l0.5,0.6l-0.8,0.7L21.5,21.8z"/>
				<path class="st1" d="M25.2,19.6c0.1,0.1,0.1,0.1,0.2,0.1c0.1,0,0.1,0,0.2,0.1c0,0.1-0.1,0.2-0.2,0.2l-1,0.4
					c-0.1,0-0.3,0.1-0.4,0c0-0.1,0.1-0.2,0.1-0.2c0-0.1-0.1-0.1-0.1-0.1L22,18.5c-0.1-0.1-0.1-0.1-0.2-0.1c-0.1,0-0.1,0-0.1-0.1
					c-0.1-0.1,0.1-0.2,0.2-0.2l1-0.4c0.1,0,0.3-0.1,0.3,0c0,0.1-0.1,0.1-0.1,0.2c0,0,0,0.1,0.1,0.1L25.2,19.6z M23.4,19.9l0,0.1
					c0,0.1-0.1,0.3-0.1,0.4c0.1,0.2,0.3,0,0.4,0.2c0,0,0,0.1,0,0.1c0,0-0.1,0.1-0.2,0.1L22.9,21c-0.1,0-0.2,0.1-0.3,0
					c0-0.1,0-0.1,0.1-0.2c0.1-0.1,0.2-0.2,0.2-0.4l0.2-0.7L23.4,19.9z M23.7,18.2l0-0.1c0-0.1,0.1-0.2,0-0.3c0-0.1-0.1-0.1-0.2-0.1
					c-0.1,0-0.1,0-0.1-0.1c0,0,0-0.1,0-0.1c0-0.1,0.1-0.1,0.2-0.1l0.6-0.2c0.1,0,0.2-0.1,0.2,0c0,0.1,0,0.1-0.1,0.2
					c-0.1,0.1-0.2,0.3-0.2,0.4L24,18.3L23.7,18.2z"/>
				<path class="st1" d="M25.9,17.2c0-0.2,0-0.2-0.2-0.2c-0.1,0-0.1,0-0.1-0.1c0-0.1,0.1-0.1,0.2-0.1l1.3-0.1l0.2,2.6
					c0,0.2,0,0.2,0.2,0.2c0.1,0,0.1,0,0.1,0.1c0,0.1-0.1,0.1-0.2,0.1L26,19.9c0,0-0.2,0-0.2-0.1c0-0.1,0-0.1,0.1-0.1
					c0.2-0.1,0.2-0.1,0.1-0.2L25.9,17.2z M27.2,16.6c0.5,0,0.7,0,1,0.1c0.4,0.1,0.5,0.4,0.6,0.8c0,0.3-0.1,0.6-0.4,0.9
					c-0.2,0.1-0.5,0.2-0.9,0.2l0-0.2c0.3-0.1,0.3-0.2,0.3-0.4l-0.1-0.6c0-0.2-0.1-0.4-0.3-0.4L27.2,16.6z"/>
				<path class="st1" d="M30.7,16.8c-0.2,0-0.3,0.2-0.3,0.3l-0.3,2.1c0,0.1,0,0.2,0.2,0.3l0,0.2c-1-0.2-1.4-1-1.3-1.8
					c0.1-0.8,0.7-1.5,1.7-1.4L30.7,16.8z M30.6,19.6c0.2,0,0.3-0.2,0.3-0.3l0.3-2.1c0-0.1,0-0.2-0.2-0.3l0-0.2c1,0.2,1.4,1,1.3,1.8
					c-0.1,0.8-0.7,1.5-1.7,1.4L30.6,19.6z"/>
				<path class="st1" d="M33.2,17.6c0.1-0.1,0.1-0.2-0.1-0.3c-0.1,0-0.1-0.1-0.1-0.1c0-0.1,0.2-0.1,0.2-0.1l1.2,0.5l-1,2.5
					c-0.1,0.1-0.1,0.2,0.1,0.3c0.1,0,0.1,0.1,0.1,0.1c0,0.1-0.2,0.1-0.2,0L32.2,20c0,0-0.2-0.1-0.1-0.2c0-0.1,0.1-0.1,0.1-0.1
					c0.2,0,0.2,0,0.2-0.1L33.2,17.6z M34.7,17.7L34.7,17.7c0.3,0.1,0.6,0.3,0.8,0.5c0.2,0.3,0.3,0.5,0.2,0.8
					c-0.2,0.4-0.6,0.5-1.1,0.4l0,0c0.4,0.2,0.7,0.5,0.6,0.9l-0.1,0.3c0,0-0.1,0.1,0,0.1c0.1,0,0.1-0.1,0.2,0c0.1,0,0.1,0.1,0.1,0.2
					c0,0.1-0.2,0.2-0.4,0.2c-0.2,0-0.4,0-0.6-0.1c-0.2-0.1-0.3-0.2-0.4-0.4c-0.1-0.2-0.1-0.4,0-0.6l0.1-0.3c0.1-0.2,0.1-0.4-0.1-0.5
					l0.1-0.2c0.2,0.1,0.3,0,0.4-0.2l0.2-0.5c0.1-0.2,0.1-0.3-0.1-0.5L34.7,17.7z"/>
				<path class="st1" d="M37.6,19.5l0.9,0.8l-1.7,2c-0.1,0.1-0.1,0.1,0,0.3c0,0.1,0,0.1,0,0.2c-0.1,0.1-0.2,0-0.2,0l-1-0.9
					c0,0-0.1-0.1-0.1-0.2c0,0,0.1,0,0.1,0c0.2,0.1,0.2,0.1,0.3-0.1L37.6,19.5z M36.9,18.8l0.5,0.5l-0.2,0.2
					c-0.3-0.1-0.5,0.1-0.7,0.2c-0.1,0.1-0.2,0.1-0.3,0c-0.1-0.1-0.1-0.2,0-0.2L36.9,18.8z M38.6,21.6c0,0-0.1,0.1-0.2,0
					c-0.1-0.1-0.1-0.2,0-0.3c0.1-0.2,0.2-0.4,0.1-0.7l0.2-0.2l0.5,0.5L38.6,21.6z"/>
			</g>
			<g>
				<path class="st1" d="M19.5,29.1c0.1-0.1,0.1-0.1,0-0.3c0-0.1,0-0.1,0-0.2c0.1-0.1,0.2,0,0.2,0l0.8,0.9l-1.8,1.8
					c-0.1,0.1-0.1,0.1,0,0.3c0,0.1,0,0.1,0,0.2c-0.1,0.1-0.2,0-0.2,0l-0.9-1c0,0-0.1-0.1,0-0.2c0,0,0.1,0,0.1,0
					c0.1,0.1,0.2,0.1,0.3,0L19.5,29.1z M20.7,29.8L20.7,29.8c0.2,0.2,0.4,0.5,0.6,0.8c0.1,0.3,0.1,0.6-0.1,0.8
					c-0.3,0.3-0.7,0.2-1.1-0.1l0,0c0.2,0.3,0.4,0.7,0.1,1l-0.3,0.3c0,0-0.1,0.1-0.1,0.1c0.1,0.1,0.1,0,0.2,0.1c0,0,0,0.1,0,0.2
					C20,33,19.8,33,19.7,33c-0.2,0-0.3-0.1-0.5-0.3c-0.1-0.1-0.2-0.3-0.2-0.5c0-0.2,0.1-0.4,0.2-0.5l0.2-0.2
					c0.1-0.1,0.3-0.3,0.1-0.5l0.2-0.2c0.2,0.2,0.3,0.1,0.4,0l0.3-0.4c0.1-0.1,0.2-0.3,0.1-0.5L20.7,29.8z"/>
				<path class="st1" d="M22.1,31l1.1,0.6l-1.3,2.8l-1.1-0.6c0,0-0.1-0.1-0.1-0.2c0-0.1,0.1-0.1,0.1-0.1c0.2,0,0.2,0,0.2-0.1l0.9-2
					c0.1-0.1,0.1-0.2,0-0.3c0,0-0.1-0.1,0-0.1C21.9,30.9,22,31,22.1,31z M22.1,34.2c0.3,0.1,0.7,0.1,1-0.2c0.1,0,0.1-0.1,0.2-0.1
					c0.1,0.1,0.1,0.2,0.1,0.2l-0.4,0.7L22,34.5L22.1,34.2z M22.7,32.9c0.2,0,0.3-0.1,0.4-0.2c0.1-0.1,0.1-0.1,0.2-0.1
					c0.1,0.1,0,0.2,0,0.2L23,33.7c0,0-0.1,0.2-0.2,0.1c-0.1,0-0.1-0.1-0.1-0.2c0-0.2,0-0.3-0.1-0.5L22.7,32.9z M23.3,31.6l0.9,0.5
					l-0.4,0.8c0,0,0,0.1-0.2,0c-0.1,0-0.1-0.1-0.1-0.2c0-0.4-0.1-0.7-0.4-0.9L23.3,31.6z"/>
				<path class="st1" d="M24,34.3c0-0.1,0.1-0.2,0.2-0.2c0.1,0,0.1,0.1,0.1,0.2c0,0.3,0.2,0.8,0.5,1l-0.1,0.2
					c-0.4-0.1-0.4-0.3-0.6-0.3c-0.1,0-0.2,0.1-0.3,0.1c-0.1,0-0.1-0.2-0.1-0.2L24,34.3z M25.6,32.6c-0.2,0-0.4,0.1-0.4,0.3
					c0,0.2,0,0.4,0.5,0.7c0.7,0.5,0.8,0.9,0.7,1.3c-0.1,0.6-0.8,0.9-1.5,0.8l0.1-0.2c0.2,0,0.4-0.1,0.5-0.3c0.1-0.3-0.2-0.4-0.4-0.6
					c-0.5-0.4-1-0.7-0.8-1.3c0.1-0.6,0.7-0.9,1.4-0.7L25.6,32.6z M26.6,33.6c0,0.1-0.1,0.2-0.2,0.2c-0.1,0-0.1-0.1-0.1-0.2
					c0-0.3-0.2-0.7-0.5-0.8l0.1-0.2c0.3,0.1,0.5,0.3,0.6,0.3c0.1,0,0.1-0.1,0.3-0.1c0.1,0,0.1,0.2,0.1,0.2L26.6,33.6z"/>
				<path class="st1" d="M27.2,32.8l1.2,0L28.3,36l-1.2,0c0,0-0.2,0-0.2-0.1c0-0.1,0-0.1,0.1-0.1c0.2,0,0.2-0.1,0.2-0.2l0.1-2.2
					c0-0.2,0-0.2-0.2-0.2C27.1,33,27,33,27,32.9C27,32.8,27.2,32.8,27.2,32.8z M28.5,35.7c0.4,0,0.7-0.3,0.8-0.6
					c0-0.1,0.1-0.1,0.1-0.1c0.1,0,0.1,0.1,0.1,0.1l0,0.8l-1.1,0L28.5,35.7z M28.6,34.2c0.2,0,0.3-0.2,0.3-0.4c0-0.1,0.1-0.1,0.1-0.1
					c0.1,0,0.1,0.2,0.1,0.2l0,0.9c0,0,0,0.2-0.1,0.2c-0.1,0-0.1-0.1-0.1-0.1c0-0.2-0.1-0.3-0.3-0.4L28.6,34.2z M28.6,32.8l1,0l0,0.8
					c0,0,0,0.1-0.1,0.1c-0.1,0-0.1,0-0.1-0.1c-0.1-0.3-0.3-0.6-0.7-0.6L28.6,32.8z"/>
				<path class="st1" d="M30.3,33.3c0-0.2,0-0.2-0.2-0.2c-0.1,0-0.1,0-0.1-0.1c0-0.1,0.1-0.2,0.1-0.2l1.2-0.3l0.5,2.6
					c0,0.2,0,0.2,0.2,0.2c0.1,0,0.1,0,0.1,0.1c0,0.1-0.1,0.2-0.1,0.2l-1.3,0.3c0,0-0.2,0-0.2-0.1c0-0.1,0-0.1,0.1-0.1
					c0.1-0.1,0.1-0.1,0.1-0.3L30.3,33.3z M31.5,32.5L31.5,32.5c0.3-0.1,0.6-0.1,0.9-0.1c0.3,0.1,0.5,0.3,0.6,0.6
					c0.1,0.5-0.2,0.7-0.6,0.9l0,0c0.4,0,0.8,0,0.9,0.4l0.1,0.4c0,0,0,0.1,0.1,0.1c0.1,0,0.1-0.1,0.2-0.2c0.1,0,0.1,0,0.2,0.1
					c0,0.1-0.1,0.3-0.2,0.4c-0.1,0.1-0.3,0.2-0.5,0.3c-0.2,0-0.4,0-0.5-0.1c-0.2-0.1-0.2-0.3-0.3-0.5l-0.1-0.3
					c0-0.2-0.1-0.4-0.4-0.4l0-0.2c0.2-0.1,0.2-0.2,0.2-0.4l-0.1-0.5c0-0.2-0.1-0.3-0.3-0.3L31.5,32.5z"/>
				<path class="st1" d="M35.9,34.2l-0.6,0.3l-1.9-2c-0.1-0.1-0.1-0.1-0.2-0.1c-0.1,0-0.1,0-0.1-0.1c-0.1-0.1,0.1-0.2,0.2-0.3
					l0.9-0.5c0.1,0,0.3-0.2,0.3,0c0.1,0.1-0.1,0.2-0.1,0.3c0,0,0,0.1,0.1,0.1l1.3,1.4L35.9,34.2z M35.4,32.7l-0.2-1
					c0-0.1,0-0.1,0-0.2c0-0.1-0.1-0.1-0.3-0.1c-0.1,0-0.1,0-0.2-0.1c-0.1-0.1,0.1-0.2,0.2-0.2l0.5-0.2c0.1,0,0.2-0.1,0.3,0
					c0,0.1,0,0.1-0.1,0.2c-0.1,0.1-0.1,0.1-0.1,0.3c0,0.1,0,0.2,0,0.3l0.2,1.3l0,0L35.4,32.7z"/>
				<path class="st1" d="M36,30.5l0.8-0.9l2.2,2.1l-0.8,0.9c0,0-0.1,0.1-0.2,0c0,0,0-0.1,0-0.2c0.1-0.2,0.1-0.2-0.1-0.3l-1.5-1.5
					c-0.1-0.1-0.1-0.1-0.3,0c-0.1,0-0.1,0-0.1,0C35.9,30.7,36,30.6,36,30.5z M36.9,29.5l0.7-0.8l0.6,0.6c0,0,0.1,0.1,0,0.2
					c-0.1,0.1-0.1,0-0.2,0c-0.3-0.1-0.6-0.1-0.9,0.2L36.9,29.5z M37.9,30.4c0.1-0.2,0-0.4,0-0.5c0-0.1-0.1-0.1,0-0.2
					c0.1-0.1,0.2,0,0.2,0l0.6,0.6c0,0,0.1,0.1,0,0.2c-0.1,0.1-0.1,0-0.2,0c-0.1-0.1-0.3-0.1-0.5,0L37.9,30.4z M39,31.4
					c0.2-0.3,0.3-0.7,0.1-1c0-0.1-0.1-0.1,0-0.2c0.1-0.1,0.2,0,0.2,0l0.6,0.6l-0.7,0.8L39,31.4z"/>
			</g>
		</g>
		<g>
			<path class="st1" d="M49.3,53.7c0.1,0,0.3,0,0.4,0.1c0.1,0.1,0.2,0.2,0.3,0.3c0.1,0.1,0.1,0.3,0.1,0.4c0,0.1,0,0.3-0.1,0.4
				c-0.1,0.1-0.2,0.2-0.3,0.3c-0.1,0.1-0.3,0.1-0.4,0.1c-0.2,0-0.3,0-0.4-0.1c-0.1-0.1-0.2-0.2-0.3-0.3c-0.1-0.1-0.1-0.3-0.1-0.4
				c0-0.1,0-0.3,0.1-0.4c0.1-0.1,0.2-0.2,0.3-0.3C49,53.7,49.2,53.7,49.3,53.7z M49.3,53.8c-0.1,0-0.2,0-0.4,0.1
				c-0.1,0.1-0.2,0.2-0.3,0.3c-0.1,0.1-0.1,0.2-0.1,0.4c0,0.1,0,0.2,0.1,0.4c0.1,0.1,0.2,0.2,0.3,0.3c0.1,0.1,0.2,0.1,0.4,0.1
				c0.1,0,0.2,0,0.4-0.1c0.1-0.1,0.2-0.2,0.3-0.3c0.1-0.1,0.1-0.2,0.1-0.4c0-0.1,0-0.2-0.1-0.4c-0.1-0.1-0.2-0.2-0.3-0.3
				C49.6,53.9,49.5,53.8,49.3,53.8z M49,55v-0.9h0.3c0.1,0,0.2,0,0.2,0c0.1,0,0.1,0,0.1,0.1c0,0,0,0.1,0,0.1c0,0.1,0,0.1-0.1,0.2
				c0,0-0.1,0.1-0.2,0.1c0,0,0.1,0,0.1,0c0,0,0.1,0.1,0.1,0.2l0.1,0.2h-0.2l-0.1-0.1c-0.1-0.1-0.1-0.2-0.2-0.2c0,0-0.1,0-0.1,0h-0.1
				V55H49z M49.1,54.5h0.2c0.1,0,0.1,0,0.2,0c0,0,0-0.1,0-0.1c0,0,0-0.1,0-0.1c0,0,0,0-0.1,0c0,0-0.1,0-0.1,0h-0.2V54.5z"/>
		</g>
	</g>
</g>
</svg>
